#!OML:ASF G:\JayActor3\Patient Classification 1\Patient 1\Session 5\male.ASF
:FULLY-SPECIFIED
:DEGREES
542
root -4.95595 17.9989 -7.5481 -430.691 -89.1211 454.936
lowerback 22.6442 -1.46451 3.22841
upperback 5.14978 -1.56283 -0.773224
thorax -7.07641 -0.946014 -2.23094
lowerneck 5.75287 1.58419 3.57646
upperneck -20.8395 2.15974 -0.661923
head -7.27649 0.628817 -0.962378
rclavicle -2.74323e-014 -1.04859e-014
rhumerus -27.8405 -2.42563 -88.3726
rradius 33.6623
rwrist 1.17243
rhand -22.4642 -8.03921
rfingers 7.12502
rthumb 3.96049 -37.9821
lclavicle -2.74323e-014 -1.04859e-014
lhumerus -29.5213 -2.61103 84.4639
lradius 33.7496
lwrist 22.2256
lhand -19.4799 9.76665
lfingers 7.12502
lthumb 6.84189 39.6361
rfemur -46.6946 -1.47644 24.5316
rtibia 36.8311
rfoot 5.52749 -6.73631
rtoes 8.47327
lfemur -41.9821 4.36139 -21.492
ltibia 44.8166
lfoot 3.32767 -2.40733
ltoes -10.9984
543
root -4.85954 18.0084 -7.54548 -427.624 -89.0436 451.867
lowerback 22.6419 -1.49157 3.22574
upperback 5.17378 -1.60074 -0.78287
thorax -7.0515 -0.96397 -2.22941
lowerneck 5.74517 1.58637 3.56359
upperneck -20.7754 2.16095 -0.67144
head -7.2541 0.63366 -0.962969
rclavicle 1.14301e-014 -7.30534e-015
rhumerus -27.8499 -2.46513 -88.3477
rradius 33.6409
rwrist 1.13436
rhand -22.4405 -8.05271
rfingers 7.12502
rthumb 3.98342 -37.9952
lclavicle 1.14301e-014 -7.30534e-015
lhumerus -29.517 -2.66421 84.4696
lradius 33.7986
lwrist 22.1587
lhand -19.45 9.71646
lfingers 7.12502
lthumb 6.87072 39.585
rfemur -46.8043 -1.49481 24.3565
rtibia 36.3746
rfoot 5.99889 -6.77711
rtoes 8.87254
lfemur -41.1768 4.25279 -21.394
ltibia 45.4601
lfoot 3.56769 -2.51755
ltoes -11.2474
544
root -4.7628 18.0158 -7.54275 -424.677 -88.9474 448.88
lowerback 22.6582 -1.51954 3.20408
upperback 5.2087 -1.6447 -0.793725
thorax -7.02431 -0.984743 -2.21642
lowerneck 5.76329 1.58428 3.55705
upperneck -20.7439 2.15706 -0.684955
head -7.24698 0.634976 -0.966003
rclavicle 2.33572e-015 -1.87355e-014
rhumerus -27.8542 -2.49666 -88.3242
rradius 33.6181
rwrist 1.09047
rhand -22.4411 -8.06684
rfingers 7.12502
rthumb 3.98287 -38.0094
lclavicle 2.33572e-015 -1.87355e-014
lhumerus -29.5065 -2.72155 84.4826
lradius 33.8407
lwrist 22.1045
lhand -19.4122 9.67547
lfingers 7.12502
lthumb 6.90723 39.5428
rfemur -46.883 -1.48947 24.147
rtibia 35.9428
rfoot 6.41323 -6.8673
rtoes 9.38139
lfemur -40.3484 4.15471 -21.3244
ltibia 46.0782
lfoot 3.86801 -2.67499
ltoes -11.4524
545
root -4.66581 18.0209 -7.54005 -421.286 -88.8415 445.418
lowerback 22.6906 -1.55146 3.18076
upperback 5.25141 -1.69413 -0.80204
thorax -6.99708 -1.00827 -2.19795
lowerneck 5.79255 1.57863 3.54896
upperneck -20.7247 2.14954 -0.692501
head -7.24605 0.633792 -0.966754
rclavicle -1.37161e-014 -2.48481e-015
rhumerus -27.8592 -2.5312 -88.2992
rradius 33.598
rwrist 1.05344
rhand -22.4438 -8.0759
rfingers 7.12502
rthumb 3.98025 -38.0185
lclavicle -1.37161e-014 -2.48481e-015
lhumerus -29.493 -2.78672 84.504
lradius 33.8797
lwrist 22.0757
lhand -19.3775 9.6505
lfingers 7.12502
lthumb 6.94075 39.5167
rfemur -46.94 -1.4702 23.9216
rtibia 35.5442
rfoot 6.778 -6.99264
rtoes 9.91059
lfemur -39.5055 4.07263 -21.2698
ltibia 46.6653
lfoot 4.20558 -2.8688
ltoes -11.5476
546
root -4.56823 18.0236 -7.53739 -418.014 -88.7198 442.045
lowerback 22.7418 -1.58447 3.14497
upperback 5.29819 -1.74763 -0.80913
thorax -6.97501 -1.03377 -2.16955
lowerneck 5.82774 1.56976 3.53767
upperneck -20.7086 2.13911 -0.691104
head -7.24745 0.63059 -0.963917
rclavicle 3.52843e-015 -2.87244e-014
rhumerus -27.8726 -2.55901 -88.2747
rradius 33.5872
rwrist 1.02387
rhand -22.4523 -8.08203
rfingers 7.12502
rthumb 3.97199 -38.0248
lclavicle 3.52843e-015 -2.87244e-014
lhumerus -29.481 -2.85348 84.5334
lradius 33.9172
lwrist 22.0725
lhand -19.3534 9.62941
lfingers 7.12502
lthumb 6.964 39.4949
rfemur -46.9853 -1.42601 23.6673
rtibia 35.1858
rfoot 7.09608 -7.15411
rtoes 10.4517
lfemur -38.6514 4.01533 -21.239
ltibia 47.2119
lfoot 4.55027 -3.09491
ltoes -11.548
547
root -4.47007 18.0239 -7.53487 -414.908 -88.588 438.811
lowerback 22.8128 -1.61716 3.10089
upperback 5.34573 -1.80206 -0.813592
thorax -6.962 -1.05981 -2.13287
lowerneck 5.85829 1.55948 3.52801
upperneck -20.6774 2.128 -0.684909
head -7.24317 0.627001 -0.959598
rclavicle -1.54058e-015 3.26007e-014
rhumerus -27.9009 -2.58925 -88.2488
rradius 33.5898
rwrist 1.01188
rhand -22.473 -8.08406
rfingers 7.12502
rthumb 3.95206 -38.0272
lclavicle -1.54058e-015 3.26007e-014
lhumerus -29.476 -2.91699 84.5688
lradius 33.9623
lwrist 22.0842
lhand -19.3342 9.63055
lfingers 7.12502
lthumb 6.98258 39.4954
rfemur -47.0257 -1.34941 23.3876
rtibia 34.8707
rfoot 7.36734 -7.35161
rtoes 10.997
lfemur -37.7896 3.9922 -21.2245
ltibia 47.7085
lfoot 4.88734 -3.36832
ltoes -11.5152
548
root -4.37128 18.0221 -7.53235 -412.106 -88.4585 435.864
lowerback 22.8969 -1.64767 3.05517
upperback 5.39255 -1.85345 -0.813852
thorax -6.95603 -1.08452 -2.09122
lowerneck 5.87629 1.5496 3.51702
upperneck -20.6255 2.11831 -0.672002
head -7.22996 0.624203 -0.952723
rclavicle 1.81391e-014 3.61291e-014
rhumerus -27.943 -2.62118 -88.2238
rradius 33.6043
rwrist 1.01979
rhand -22.5122 -8.07533
rfingers 7.12502
rthumb 3.91413 -38.0191
lclavicle 1.81391e-014 3.61291e-014
lhumerus -29.4802 -2.97265 84.6094
lradius 34.0142
lwrist 22.106
lhand -19.3289 9.62407
lfingers 7.12502
lthumb 6.98766 39.4887
rfemur -47.0725 -1.24163 23.0984
rtibia 34.6012
rfoot 7.60699 -7.57118
rtoes 11.5169
lfemur -36.9281 4.01492 -21.2157
ltibia 48.1437
lfoot 5.20209 -3.70064
ltoes -11.4683
549
root -4.27184 18.0183 -7.52954 -409.609 -88.3395 433.216
lowerback 22.9799 -1.67555 3.01321
upperback 5.43686 -1.90012 -0.809644
thorax -6.95176 -1.10703 -2.04813
lowerneck 5.88041 1.54226 3.50336
upperneck -20.5532 2.11244 -0.653862
head -7.20767 0.623561 -0.943731
rclavicle -1.03368e-014 -2.38542e-014
rhumerus -27.9951 -2.65709 -88.2004
rradius 33.6307
rwrist 1.04045
rhand -22.553 -8.07572
rfingers 7.12502
rthumb 3.87476 -38.0202
lclavicle -1.03368e-014 -2.38542e-014
lhumerus -29.4962 -3.0169 84.6539
lradius 34.0748
lwrist 22.1322
lhand -19.3426 9.59207
lfingers 7.12502
lthumb 6.97443 39.4572
rfemur -47.1397 -1.12696 22.8224
rtibia 34.3767
rfoot 7.82858 -7.78936
rtoes 12.0078
lfemur -36.0784 4.08299 -21.2056
ltibia 48.5041
lfoot 5.48923 -4.10775
ltoes -11.4402
550
root -4.17148 18.0121 -7.52624 -407.684 -88.2305 431.145
lowerback 23.0524 -1.69796 2.96901
upperback 5.47733 -1.94031 -0.806005
thorax -6.94581 -1.12633 -2.00633
lowerneck 5.8738 1.53714 3.49261
upperneck -20.4679 2.11003 -0.633892
head -7.17916 0.624539 -0.934714
rclavicle -2.70347e-014 -2.3556e-014
rhumerus -28.0521 -2.70309 -88.1816
rradius 33.6616
rwrist 1.08476
rhand -22.6044 -8.07702
rfingers 7.12502
rthumb 3.82509 -38.0224
lclavicle -2.70347e-014 -2.3556e-014
lhumerus -29.5216 -3.05226 84.6982
lradius 34.1416
lwrist 22.1566
lhand -19.3643 9.54298
lfingers 7.12502
lthumb 6.95352 39.4088
rfemur -47.2415 -1.03109 22.5707
rtibia 34.1979
rfoot 8.05183 -7.9852
rtoes 12.4888
lfemur -35.2498 4.19403 -21.2002
ltibia 48.7738
lfoot 5.75692 -4.59561
ltoes -11.3981
551
root -4.07034 18.0038 -7.52222 -406.001 -88.1402 429.326
lowerback 23.1036 -1.71713 2.93854
upperback 5.51478 -1.97345 -0.802775
thorax -6.932 -1.14227 -1.97523
lowerneck 5.8558 1.53289 3.47598
upperneck -20.3754 2.10918 -0.604619
head -7.14647 0.62601 -0.92166
rclavicle -1.28713e-014 3.06625e-014
rhumerus -28.1085 -2.76002 -88.1698
rradius 33.6945
rwrist 1.13909
rhand -22.6419 -8.0965
rfingers 7.12502
rthumb 3.78891 -38.0426
lclavicle -1.28713e-014 3.06625e-014
lhumerus -29.5533 -3.08293 84.7402
lradius 34.2125
lwrist 22.1735
lhand -19.3927 9.47954
lfingers 7.12502
lthumb 6.92611 39.3462
rfemur -47.3878 -0.977491 22.3664
rtibia 34.0633
rfoot 8.30309 -8.1425
rtoes 12.9453
lfemur -34.4433 4.33683 -21.1861
ltibia 48.9347
lfoot 6.01253 -5.1609
ltoes -11.3419
